<svg width="17" height="17" viewBox="0 0 17 17" fill="none" xmlns="http://www.w3.org/2000/svg">
<g id="telephone 1" clip-path="url(#clip0_22362_1016)">
<g id="Group">
<g id="Group_2">
<path id="Vector" d="M2.25241 4.81676C0.750584 6.31856 0.750584 8.76214 2.25238 10.2639L3.05007 9.46625C1.98816 8.40435 1.98814 6.67646 3.0501 5.61451C4.11203 4.55257 5.83992 4.55257 6.90185 5.61448L7.69953 4.81679C6.19776 3.31497 3.75418 3.31499 2.25241 4.81676Z" fill="white"/>
</g>
</g>
<g id="Group_3">
<g id="Group_4">
<path id="Vector_2" d="M3.84127 6.39112C3.2091 7.02328 3.20907 8.05194 3.84124 8.68413L4.63895 7.88645C4.54578 7.79328 4.49446 7.6694 4.49446 7.53764C4.49446 7.40591 4.54581 7.28203 4.63898 7.18886C4.73215 7.09568 4.85603 7.04437 4.98776 7.04437C5.11952 7.04437 5.24343 7.09568 5.33658 7.18886L6.13426 6.39114C5.50209 5.75895 4.47344 5.75895 3.84127 6.39112Z" fill="white"/>
</g>
</g>
<g id="Group_5">
<g id="Group_6">
<path id="Vector_3" d="M13.7483 4.43548L11.8551 2.54883L7.92337 6.47402L9.44758 8.04816C9.19214 8.5016 8.6379 9.37025 7.69334 10.3148C6.74865 11.2595 5.87366 11.8201 5.41587 12.0796L3.87261 10.556L0.0022583 14.4033L1.8851 16.2987C2.60485 17.0184 3.69998 17.2049 4.6102 16.7629C5.99921 16.0882 8.09546 14.8435 10.1943 12.7447C12.2931 10.6459 13.5379 8.54959 14.2125 7.16058C14.3723 6.83144 14.45 6.47823 14.45 6.12727C14.45 5.50755 14.2078 4.895 13.7483 4.43548ZM13.1977 6.66768C12.5609 7.97881 11.3845 9.959 9.39661 11.9469C7.40868 13.9349 5.42849 15.1113 4.11735 15.7481C3.63935 15.9802 3.06287 15.8809 2.6842 15.5023L1.59746 14.4083L3.87543 12.1439L5.19015 13.4419L5.5419 13.2852C5.59905 13.2598 6.95947 12.6442 8.49116 11.1125C10.0239 9.57982 10.6267 8.23089 10.6515 8.17422L10.8041 7.82718L9.50677 6.4874L11.8559 4.14213L12.9512 5.23362C13.3307 5.61365 13.4298 6.18987 13.1977 6.66768Z" fill="white"/>
</g>
</g>
</g>
<defs>
<clipPath id="clip0_22362_1016">
<rect width="17" height="17" fill="white"/>
</clipPath>
</defs>
</svg>
